<svg width="50" height="50" xmlns="http://www.w3.org/2000/svg">
 <g>
  <title>Layer 1</title>
  <g id="svg_51">
   <path d="m48.036,15.73l0,0l-3.313,5.738v22.976c0,0.144 -0.135,0.279 -0.277,0.279h-38.89c-0.143,0 -0.278,-0.136 -0.278,-0.279v-38.888c0,-0.143 0.135,-0.278 0.278,-0.278h28.42l1.291,-2.235l0,0l0.744,-1.29c0.384,-0.665 0.866,-1.246 1.414,-1.753h-31.869c-3.064,0 -5.556,2.492 -5.556,5.556v38.889c0,3.063 2.492,5.555 5.556,5.555h38.889c3.063,0 5.555,-2.492 5.555,-5.557v-32.117l-1.964,3.404z" id="svg_34"/>
   <polygon points="25.889,26.23 25.943,36.589 34.943,31.461 45.594,13.013 36.538,7.785" id="svg_35"/>
   <path d="m48.076,8.714c1.25,-2.167 0.232,-5.087 -2.268,-6.531s-5.539,-0.865 -6.791,1.304l-1.31,2.273l9.058,5.227l1.311,-2.273z" id="svg_36"/>
  </g>
 </g>
</svg>
